<svg xmlns="http://www.w3.org/2000/svg" width="27" height="27" viewBox="0 0 27 27">
  <path id="iconmonstr-instagram-11" d="M13.5,2.433c3.6,0,4.032.014,5.456.079,3.659.166,5.367,1.9,5.534,5.534.065,1.423.078,1.851.078,5.455s-.014,4.032-.078,5.455c-.168,3.628-1.872,5.367-5.534,5.534-1.424.065-1.849.079-5.456.079s-4.032-.013-5.455-.079c-3.667-.168-5.367-1.911-5.534-5.535-.065-1.423-.079-1.85-.079-5.455s.015-4.031.079-5.455c.168-3.63,1.872-5.367,5.534-5.534C9.469,2.447,9.9,2.433,13.5,2.433ZM13.5,0C9.834,0,9.375.016,7.935.081,3.032.306.307,3.026.082,7.933.016,9.375,0,9.834,0,13.5s.016,4.126.081,5.566c.225,4.9,2.945,7.627,7.852,7.852,1.441.065,1.9.081,5.567.081s4.126-.016,5.566-.081c4.9-.225,7.63-2.945,7.851-7.852.066-1.44.082-1.9.082-5.566s-.016-4.125-.081-5.565C26.7,3.036,23.975.307,19.068.082,17.626.016,17.166,0,13.5,0Zm0,6.568A6.933,6.933,0,1,0,20.432,13.5,6.933,6.933,0,0,0,13.5,6.568ZM13.5,18A4.5,4.5,0,1,1,18,13.5,4.5,4.5,0,0,1,13.5,18ZM20.707,4.674a1.62,1.62,0,1,0,1.619,1.62A1.621,1.621,0,0,0,20.707,4.674Z" fill="#fff"/>
</svg>
