<svg xmlns="http://www.w3.org/2000/svg" viewBox="0 0 24 24" style="enable-background:new 0 0 24 24" xml:space="preserve"><path d="M0 0h24v24H0V0z" style="fill:none"/><path d="M12 .6C5.7.6.6 5.7.6 12S5.7 23.4 12 23.4c6.3 0 11.4-5.1 11.4-11.4S18.3.6 12 .6zm7.9 6.8h-3.4c-.3-1.4-.9-2.8-1.5-4 2.1.7 3.8 2.2 4.9 4zM12 2.9c.9 1.4 1.7 2.9 2.2 4.5H9.8c.5-1.6 1.3-3.1 2.2-4.5zM3.2 14.3c-.2-.7-.3-1.5-.3-2.3s.1-1.6.3-2.3H7c-.1.8-.2 1.5-.2 2.3s.1 1.5.2 2.3H3.2zm.9 2.3h3.4c.3 1.4.9 2.8 1.5 4-2.1-.7-3.8-2.1-4.9-4zm3.4-9.2H4.1c1.1-1.9 2.8-3.3 4.9-4-.6 1.2-1.2 2.6-1.5 4zM12 21.1c-.9-1.4-1.7-2.9-2.2-4.5h4.4c-.5 1.6-1.3 3.1-2.2 4.5zm2.7-6.8H9.3c-.1-.8-.2-1.5-.2-2.3s.1-1.5.2-2.3h5.3c.1.7.2 1.5.2 2.3s0 1.5-.1 2.3zm.3 6.3c.7-1.3 1.2-2.6 1.6-4.1H20c-1.2 1.9-2.9 3.4-5 4.1zm2-6.3c.1-.8.2-1.5.2-2.3s-.1-1.5-.2-2.3h3.9c.2.7.3 1.5.3 2.3s-.1 1.6-.3 2.3H17z" style="fill:#fff"/></svg>